<?xml version="1.0" encoding="UTF-8"?>
<svg id="Layer_2" data-name="Layer 2" xmlns="http://www.w3.org/2000/svg" viewBox="0 0 960 227.58">
  <defs>
    <style>
      .cls-1 {
        fill: #f6f7f5;
      }
    </style>
  </defs>
  <g id="Text">
    <g>
      <path class="cls-1" d="m622.23,41.87c5.01-4.52,7.52-10.42,7.52-17.69,0-7.67-2.46-13.61-7.37-17.84-4.92-4.23-11.8-6.34-20.64-6.34s-15.53,2.26-20.64,6.78c-5.11,4.53-7.67,10.32-7.67,17.4,0,7.86,2.51,13.91,7.52,18.14,5.01,4.23,11.94,6.34,20.79,6.34s15.48-2.26,20.5-6.78Z"/>
      <path class="cls-1" d="m68.42,227.58c-15.33,0-28.85-2.46-40.55-7.37-11.7-4.91-20.99-11.5-27.87-19.76l28.6-24.77c6.09,6.1,12.97,10.57,20.64,13.42,7.67,2.85,14.94,4.28,21.82,4.28,2.75,0,5.21-.3,7.37-.88,2.16-.59,3.98-1.42,5.46-2.51,1.47-1.08,2.6-2.36,3.39-3.83.78-1.47,1.18-3.19,1.18-5.16,0-3.93-1.77-6.98-5.31-9.14-1.77-.98-4.72-2.16-8.85-3.54-4.13-1.37-9.44-2.95-15.92-4.72-9.24-2.36-17.25-5.16-24.03-8.4-6.78-3.24-12.34-7.03-16.66-11.35-3.94-4.13-6.98-8.7-9.14-13.71-2.17-5.01-3.24-10.66-3.24-16.96,0-7.27,1.72-13.86,5.16-19.76,3.44-5.9,8.06-11.01,13.86-15.33,5.8-4.32,12.48-7.62,20.05-9.88,7.57-2.26,15.38-3.39,23.44-3.39,8.65,0,16.91.99,24.77,2.95,7.86,1.97,15.19,4.72,21.97,8.26,6.78,3.54,12.83,7.77,18.14,12.68l-24.77,27.72c-3.54-3.34-7.52-6.34-11.94-8.99-4.42-2.65-8.99-4.76-13.71-6.34-4.72-1.57-9.04-2.36-12.98-2.36-2.95,0-5.56.25-7.81.74-2.26.49-4.18,1.28-5.75,2.36-1.58,1.08-2.76,2.36-3.54,3.83-.79,1.47-1.18,3.2-1.18,5.16s.54,3.83,1.62,5.6c1.08,1.77,2.6,3.24,4.57,4.42,1.96,1.18,5.11,2.51,9.44,3.98,4.32,1.47,10.22,3.29,17.69,5.46,9.24,2.56,17.2,5.41,23.89,8.55,6.68,3.15,11.99,6.88,15.92,11.21,3.14,3.34,5.5,7.23,7.08,11.65,1.57,4.42,2.36,9.19,2.36,14.3,0,10.03-2.8,18.92-8.4,26.69-5.6,7.77-13.32,13.86-23.15,18.28-9.83,4.42-21.04,6.64-33.62,6.64Z"/>
      <polygon class="cls-1" points="250.46 68.04 220.09 68.04 220.09 29.11 172.9 29.11 172.9 68.04 145.18 68.04 145.18 109.32 172.9 109.32 172.9 224.63 220.09 224.63 220.09 109.32 250.46 109.32 250.46 68.04"/>
      <path class="cls-1" d="m269.48,224.63V68.04h44.82l.97,23.95c1.2-1.85,2.49-3.64,3.9-5.38,5.4-6.68,11.75-11.99,19.02-15.92,7.27-3.93,15.04-5.9,23.3-5.9,3.54,0,6.83.29,9.88.88,3.05.59,5.85,1.28,8.4,2.06l-12.97,52.2c-2.17-1.37-5.06-2.51-8.7-3.39-3.64-.88-7.42-1.33-11.35-1.33-4.33,0-8.36.74-12.09,2.21-3.74,1.47-6.88,3.59-9.44,6.34-2.56,2.76-4.57,6-6.05,9.73-1.47,3.74-2.21,7.96-2.21,12.68v78.44h-47.48Z"/>
      <path class="cls-1" d="m724.49,227.05c-15.14,0-28.71-3.54-40.7-10.62-11.99-7.08-21.48-16.76-28.46-29.05-6.98-12.28-10.47-26.2-10.47-41.73s3.49-29.44,10.47-41.73c6.98-12.28,16.46-21.97,28.46-29.05,11.99-7.08,25.55-10.62,40.7-10.62,13.96,0,26.78,2.46,38.48,7.37,11.69,4.92,20.98,11.8,27.87,20.64l-25.66,30.67c-2.76-3.14-6-6.09-9.73-8.85-3.74-2.75-7.87-4.91-12.39-6.49-4.52-1.57-9.24-2.36-14.16-2.36-7.47,0-14.06,1.72-19.76,5.16-5.7,3.44-10.13,8.21-13.27,14.3-3.15,6.1-4.72,13.08-4.72,20.94s1.62,14.26,4.87,20.35c3.24,6.1,7.71,10.91,13.42,14.45,5.7,3.54,12.19,5.31,19.46,5.31,5.11,0,9.83-.64,14.16-1.92,4.32-1.28,8.3-3.19,11.94-5.75,3.64-2.55,7.03-5.7,10.17-9.44l25.36,30.96c-6.69,8.46-15.98,15.14-27.87,20.05-11.9,4.91-24.62,7.37-38.19,7.37Z"/>
      <path class="cls-1" d="m875.66,227.05c-16.32,0-30.82-3.54-43.5-10.62-12.68-7.08-22.71-16.71-30.08-28.9-7.37-12.19-11.06-26.14-11.06-41.88s3.69-29.68,11.06-41.88c7.37-12.19,17.4-21.82,30.08-28.9,12.68-7.08,27.18-10.62,43.5-10.62s30.82,3.54,43.5,10.62c12.68,7.08,22.66,16.71,29.93,28.9,7.27,12.19,10.91,26.15,10.91,41.88s-3.64,29.69-10.91,41.88c-7.28,12.19-17.25,21.82-29.93,28.9-12.68,7.08-27.18,10.62-43.5,10.62Zm0-40.7c7.08,0,13.37-1.77,18.87-5.31,5.5-3.54,9.83-8.35,12.98-14.45,3.14-6.09,4.62-13.07,4.42-20.94.19-7.86-1.28-14.89-4.42-21.09-3.15-6.19-7.47-11.06-12.98-14.6-5.51-3.54-11.8-5.31-18.87-5.31s-13.42,1.77-19.02,5.31c-5.6,3.54-9.98,8.4-13.12,14.6-3.15,6.19-4.62,13.22-4.42,21.09-.2,7.87,1.28,14.85,4.42,20.94,3.14,6.1,7.52,10.91,13.12,14.45,5.6,3.54,11.94,5.31,19.02,5.31Z"/>
      <path class="cls-1" d="m543.21,211.52v-43.4h-32.55l32.55-65.11v-34.97h-46.89v18.97c-2.83-3.68-6.07-7.01-9.73-9.98-4.72-3.83-10.17-6.83-16.37-8.99-6.19-2.16-13.03-3.24-20.5-3.24-13.56,0-25.65,3.49-36.27,10.47-10.62,6.98-18.97,16.57-25.07,28.75-6.1,12.19-9.14,26.25-9.14,42.17s3.05,29.44,9.14,41.73c6.09,12.29,14.3,21.92,24.62,28.9,10.32,6.98,22.07,10.47,35.24,10.47,7.08,0,13.76-1.08,20.05-3.24,6.29-2.16,11.99-5.11,17.1-8.85,5.11-3.73,9.44-8.06,12.98-12.97,2.12-2.95,3.89-6.01,5.3-9.17,10.93,20.38,32.44,34.27,57.13,34.27v-42.21l-17.61,26.41Zm-50.72-43.36c-2.95,6.19-7.08,10.96-12.39,14.3-5.31,3.34-11.6,5.01-18.87,5.01s-13.22-1.67-18.43-5.01c-5.21-3.34-9.29-8.11-12.24-14.3-2.95-6.19-4.42-13.52-4.42-21.97s1.48-15.78,4.42-21.97c2.95-6.19,7.03-11.01,12.24-14.45,5.21-3.44,11.35-5.16,18.43-5.16s13.57,1.72,18.87,5.16c5.31,3.44,9.44,8.26,12.39,14.45,2.95,6.19,4.42,13.52,4.42,21.97s-1.47,15.78-4.42,21.97Z"/>
      <path class="cls-1" d="m625.32,68.04h-47.18v13.27h19.33l-16.28,32.55h27.13l-30.18,45.27v65.73c27.19-7.69,47.18-32.72,47.18-62.34v-94.48Z"/>
    </g>
  </g>
</svg>