<?xml version="1.0" encoding="UTF-8"?>
<svg id="Layer_2" data-name="Layer 2" xmlns="http://www.w3.org/2000/svg" viewBox="0 0 1200 284.47">
  <defs>
    <style>
      .cls-1 {
        fill: #e57a44;
      }
    </style>
  </defs>
  <g id="Layer_1-2" data-name="Layer 1">
    <g>
      <g>
        <path class="cls-1" d="m85.52,284.47c-19.17,0-36.07-3.08-50.69-9.22-14.62-6.14-26.24-14.38-34.83-24.7l35.76-30.96c7.61,7.62,16.22,13.21,25.8,16.77,9.58,3.56,18.67,5.34,27.28,5.34,3.44,0,6.51-.37,9.21-1.11,2.7-.74,4.98-1.78,6.82-3.13,1.84-1.35,3.25-2.95,4.24-4.79.98-1.84,1.48-3.99,1.48-6.45,0-4.91-2.21-8.72-6.64-11.43-2.21-1.23-5.9-2.7-11.06-4.42-5.16-1.72-11.8-3.69-19.91-5.9-11.55-2.95-21.56-6.45-30.04-10.51-8.48-4.05-15.42-8.78-20.83-14.19-4.92-5.16-8.73-10.87-11.43-17.14-2.71-6.27-4.05-13.33-4.05-21.2,0-9.09,2.15-17.33,6.45-24.7,4.3-7.37,10.07-13.76,17.33-19.17,7.25-5.4,15.6-9.52,25.07-12.35,9.46-2.82,19.23-4.24,29.3-4.24,10.81,0,21.13,1.23,30.96,3.69,9.83,2.46,18.98,5.9,27.46,10.32,8.48,4.42,16.03,9.71,22.67,15.85l-30.96,34.65c-4.42-4.17-9.4-7.92-14.93-11.24-5.53-3.32-11.24-5.95-17.14-7.92-5.9-1.96-11.31-2.95-16.22-2.95-3.69,0-6.95.31-9.77.92-2.83.62-5.22,1.6-7.19,2.95-1.97,1.35-3.44,2.95-4.42,4.79-.98,1.84-1.47,4-1.47,6.45s.67,4.79,2.03,7c1.35,2.21,3.26,4.06,5.71,5.53,2.45,1.48,6.39,3.13,11.8,4.98,5.4,1.84,12.77,4.12,22.12,6.82,11.55,3.2,21.5,6.76,29.86,10.69,8.35,3.93,14.99,8.6,19.91,14.01,3.93,4.18,6.88,9.03,8.85,14.56,1.96,5.53,2.95,11.49,2.95,17.88,0,12.53-3.5,23.66-10.51,33.36-7,9.71-16.65,17.33-28.94,22.85-12.29,5.53-26.3,8.29-42.02,8.29Z"/>
        <polygon class="cls-1" points="313.07 85.05 275.11 85.05 275.11 36.39 216.13 36.39 216.13 85.05 181.48 85.05 181.48 136.65 216.13 136.65 216.13 280.78 275.11 280.78 275.11 136.65 313.07 136.65 313.07 85.05"/>
        <path class="cls-1" d="m336.85,280.78V85.05h56.03l1.21,29.94c1.5-2.32,3.12-4.55,4.87-6.72,6.76-8.35,14.68-14.99,23.78-19.91,9.09-4.91,18.8-7.37,29.12-7.37,4.42,0,8.54.37,12.35,1.11,3.81.74,7.31,1.6,10.51,2.58l-16.22,65.25c-2.71-1.72-6.33-3.13-10.87-4.24-4.55-1.11-9.28-1.66-14.19-1.66-5.41,0-10.45.92-15.11,2.76-4.67,1.84-8.6,4.49-11.8,7.93-3.2,3.44-5.71,7.5-7.56,12.16-1.84,4.67-2.77,9.95-2.77,15.85v98.05h-59.35Z"/>
        <path class="cls-1" d="m905.61,283.81c-18.93,0-35.88-4.42-50.87-13.27-14.99-8.85-26.85-20.95-35.57-36.31-8.73-15.36-13.09-32.74-13.09-52.16s4.36-36.8,13.09-52.16c8.72-15.36,20.58-27.46,35.57-36.31,14.99-8.85,31.94-13.27,50.87-13.27,17.45,0,33.48,3.08,48.1,9.22,14.62,6.15,26.23,14.74,34.83,25.8l-32.07,38.34c-3.44-3.93-7.5-7.61-12.16-11.06-4.67-3.44-9.83-6.14-15.48-8.11-5.66-1.96-11.55-2.95-17.69-2.95-9.34,0-17.57,2.15-24.7,6.45-7.13,4.3-12.66,10.26-16.59,17.88-3.93,7.62-5.9,16.35-5.9,26.17s2.03,17.82,6.08,25.43c4.06,7.62,9.64,13.64,16.77,18.06,7.12,4.42,15.23,6.64,24.33,6.64,6.39,0,12.29-.8,17.69-2.4,5.4-1.6,10.38-3.99,14.93-7.19,4.55-3.19,8.78-7.12,12.72-11.8l31.7,38.71c-8.36,10.57-19.97,18.93-34.84,25.07-14.87,6.14-30.78,9.22-47.74,9.22Z"/>
        <path class="cls-1" d="m1094.57,283.81c-20.4,0-38.52-4.42-54.37-13.27-15.85-8.85-28.38-20.88-37.6-36.12-9.22-15.23-13.82-32.68-13.82-52.34s4.61-37.1,13.82-52.34c9.21-15.23,21.75-27.28,37.6-36.12,15.85-8.85,33.97-13.27,54.37-13.27s38.52,4.42,54.37,13.27c15.85,8.85,28.32,20.89,37.41,36.12,9.09,15.24,13.64,32.69,13.64,52.34s-4.55,37.11-13.64,52.34c-9.09,15.24-21.56,27.28-37.41,36.12-15.85,8.85-33.98,13.27-54.37,13.27Zm0-50.87c8.85,0,16.71-2.21,23.59-6.64,6.88-4.42,12.29-10.44,16.22-18.06,3.93-7.61,5.77-16.34,5.53-26.17.24-9.83-1.6-18.62-5.53-26.36-3.93-7.74-9.34-13.82-16.22-18.25-6.88-4.42-14.74-6.64-23.59-6.64s-16.77,2.21-23.78,6.64c-7,4.42-12.47,10.51-16.4,18.25-3.93,7.74-5.78,16.53-5.53,26.36-.25,9.83,1.6,18.56,5.53,26.17,3.93,7.62,9.4,13.64,16.4,18.06,7,4.42,14.93,6.64,23.78,6.64Z"/>
      </g>
      <g>
        <path class="cls-1" d="m777.78,52.34c6.27-5.65,9.4-13.02,9.4-22.12,0-9.59-3.08-17.01-9.22-22.3-6.15-5.28-14.75-7.93-25.8-7.93s-19.42,2.83-25.8,8.48c-6.39,5.66-9.58,12.9-9.58,21.75,0,9.83,3.13,17.39,9.4,22.67,6.27,5.29,14.93,7.93,25.99,7.93s19.35-2.82,25.62-8.48Z"/>
        <path class="cls-1" d="m679.02,264.4v-54.25h-40.69l40.69-81.38v-43.71h-58.61v23.72c-3.54-4.6-7.59-8.76-12.16-12.47-5.9-4.79-12.72-8.54-20.46-11.24-7.74-2.7-16.28-4.06-25.62-4.06-16.96,0-32.07,4.37-45.34,13.09-13.27,8.73-23.72,20.71-31.33,35.94-7.62,15.24-11.43,32.81-11.43,52.71s3.81,36.8,11.43,52.16c7.61,15.36,17.88,27.4,30.78,36.12,12.9,8.73,27.58,13.09,44.05,13.09,8.85,0,17.2-1.35,25.07-4.05,7.86-2.7,14.98-6.39,21.38-11.06,6.39-4.66,11.8-10.07,16.22-16.22,2.65-3.69,4.86-7.51,6.63-11.46,13.66,25.47,40.55,42.84,71.42,42.84v-52.77l-22.01,33.02Zm-63.4-54.2c-3.69,7.74-8.85,13.7-15.48,17.88-6.63,4.18-14.5,6.27-23.59,6.27s-16.53-2.09-23.04-6.27c-6.51-4.18-11.61-10.14-15.3-17.88-3.69-7.74-5.53-16.89-5.53-27.46s1.84-19.72,5.53-27.46c3.69-7.74,8.78-13.76,15.3-18.06,6.51-4.3,14.19-6.45,23.04-6.45s16.96,2.15,23.59,6.45c6.63,4.3,11.8,10.32,15.48,18.06,3.69,7.74,5.53,16.9,5.53,27.46s-1.84,19.72-5.53,27.46Z"/>
        <path class="cls-1" d="m781.65,85.05h-58.98v16.59h24.16l-20.35,40.69h33.91l-37.73,56.59v82.16c33.99-9.62,58.98-40.9,58.98-77.93v-118.11Z"/>
      </g>
    </g>
  </g>
</svg>
